<svg id="Layer_1" data-name="Layer 1" xmlns="http://www.w3.org/2000/svg" viewBox="0 0 125.36 53.03"><defs><style>.cls-1{fill:#fff;}.cls-2{fill:#948166;}.cls-3{fill:#b12028;}</style></defs><title>Logo</title><path class="cls-1" d="M49.34,24.6H46.76V12.3h4.76c1.75,0,2.88,1.12,2.88,3.22,0,1.57-.62,2.74-2.29,3v0A2.19,2.19,0,0,1,54.35,21a16.77,16.77,0,0,0,.29,3.61H52.11a5.63,5.63,0,0,1-.27-2.38c0-1.47.14-2.71-1.84-2.71h-.66Zm0-7h1.14c1,0,1.31-1,1.31-1.8,0-1.18-.49-1.62-1.31-1.62H49.34Z"/><path class="cls-1" d="M60,23.73h0a2.13,2.13,0,0,1-2,1,1.94,1.94,0,0,1-2.14-1.87V16h2.4v6c0,.77.14,1.33.9,1.33S60,22.73,60,22V16h2.4v6.9c0,.56,0,1.14.08,1.7H60Z"/><path class="cls-1" d="M66.19,16V17h0a2,2,0,0,1,2-1.13c2.49,0,2.4,2.77,2.4,4.54s.07,4.41-2.35,4.41a2.1,2.1,0,0,1-2-1h0V28.3H63.9V16Zm2.11,4.22c0-1.72,0-2.91-1-2.91s-1,1.19-1,2.91c0,2.17.15,3.07,1,3.07S68.3,22.39,68.3,20.22Z"/><path class="cls-1" d="M74.25,20.68c0,1,0,2.56,1.09,2.56.85,0,1-.82,1-1.54H78.8a3.1,3.1,0,0,1-.92,2.24,3.6,3.6,0,0,1-2.54.83c-3.1,0-3.51-1.89-3.51-4.58,0-2.35.34-4.37,3.51-4.37s3.59,2.1,3.51,4.86Zm2.2-1.34c0-.84,0-2-1.11-2s-1.09,1.29-1.09,2Z"/><path class="cls-1" d="M82.5,16v1.1h0a2.17,2.17,0,0,1,2.23-1.28V18c-2.11-.13-2.15,1.09-2.15,1.94V24.6h-2.4V16Z"/><path class="cls-1" d="M85.31,16h1V13.54l2.4,0V16h1.24v1.48H88.68v4.6c0,.65,0,1.07.77,1.07a1.84,1.84,0,0,0,.42,0V24.6a8.58,8.58,0,0,1-1.24.09c-2.08,0-2.35-1.38-2.35-1.91v-5.3h-1Z"/><path class="cls-1" d="M93.25,21.84a2.41,2.41,0,0,0,.12,1c.13.27.39.41.87.41a.84.84,0,0,0,.88-.89c0-1.82-4.22-1.41-4.22-4.16,0-1.85,1.84-2.42,3.39-2.42s3.12.79,3,2.65H94.92c0-.6-.07-1-.24-1.11a.82.82,0,0,0-.61-.19c-.53,0-.82.34-.82.92,0,1.36,4.22,1.3,4.22,4.06,0,1.5-1.22,2.62-3.22,2.62s-3.49-.53-3.35-2.93Z"/><path class="cls-1" d="M101.19,12.3V24.6H98.78V12.3Z"/><path class="cls-1" d="M109.32,23a14.35,14.35,0,0,0,.12,1.6H107.2l-.1-1.14h0a2.38,2.38,0,0,1-2.25,1.31c-1.67,0-2.29-1.24-2.29-2.74,0-2.85,2.2-3,4.43-2.93v-.67c0-.73-.1-1.26-1-1.26s-.9.63-.9,1.31h-2.35a2.34,2.34,0,0,1,.88-2.09,3.74,3.74,0,0,1,2.25-.57c3,0,3.45,1.32,3.45,2.88Zm-4.43-1.07c0,.61.1,1.36.88,1.36,1.42,0,1.19-1.91,1.19-2.85C105.77,20.49,104.89,20.39,104.89,21.93Z"/><path class="cls-1" d="M113.18,16.86h0a2.08,2.08,0,0,1,.85-.8,2.59,2.59,0,0,1,1.18-.24,2,2,0,0,1,2.14,1.88v6.9H115V18.67c0-.77-.14-1.36-.9-1.36s-.91.59-.91,1.36V24.6h-2.4V16h2.4Z"/><path class="cls-1" d="M123.07,24.6v-1h0a2,2,0,0,1-2,1.12c-2.48,0-2.4-2.76-2.4-4.53s-.07-4.42,2.35-4.42a2.11,2.11,0,0,1,2,1h0V12.3h2.4V24.6ZM123,20.22c0-1.72,0-2.91-1-2.91s-1,1.19-1,2.91c0,2.17.16,3.07,1,3.07S123,22.39,123,20.22Z"/><path class="cls-1" d="M46.82,39.38V27.08h2.57v12.3Z"/><path class="cls-1" d="M53.55,31.65h0a1.91,1.91,0,0,1,.85-.8,2.58,2.58,0,0,1,1.17-.24,2,2,0,0,1,2.15,1.87v6.9h-2.4V33.45c0-.76-.14-1.36-.9-1.36s-.91.6-.91,1.36v5.93h-2.4v-8.6h2.4Z"/><path class="cls-1" d="M61.27,36.62a2.39,2.39,0,0,0,.12,1c.14.28.39.41.87.41a.84.84,0,0,0,.89-.88c0-1.83-4.23-1.42-4.23-4.16,0-1.86,1.84-2.42,3.39-2.42s3.12.78,3,2.64H62.94c0-.6-.07-1-.24-1.11a.82.82,0,0,0-.61-.19c-.53,0-.82.34-.82.92,0,1.37,4.23,1.3,4.23,4.06,0,1.5-1.23,2.62-3.22,2.62s-3.5-.52-3.36-2.93Z"/><path class="cls-1" d="M65.68,30.78h1V28.35h2.4v2.44H70.3v1.48H69.06v4.6c0,.65,0,1.08.77,1.08a1.4,1.4,0,0,0,.42,0v1.48a8.58,8.58,0,0,1-1.24.09c-2.08,0-2.35-1.38-2.35-1.91v-5.3h-1Z"/><path class="cls-1" d="M73.71,27.08V29h-2.4V27.08Zm0,12.3h-2.4v-8.6h2.4Z"/><path class="cls-1" d="M74.58,30.78h1V28.35H78v2.44H79.2v1.48H78v4.6c0,.65,0,1.08.77,1.08a1.46,1.46,0,0,0,.43,0v1.48a8.86,8.86,0,0,1-1.25.09c-2.08,0-2.35-1.38-2.35-1.91v-5.3h-1Z"/><path class="cls-1" d="M84.26,38.52h0a2.13,2.13,0,0,1-2,1,2,2,0,0,1-2.15-1.87v-6.9h2.4v6c0,.77.14,1.33.9,1.33s.91-.56.91-1.33v-6h2.4v6.9c0,.56,0,1.14.09,1.7H84.26Z"/><path class="cls-1" d="M87.38,30.78h1V28.35h2.4v2.44H92v1.48H90.75v4.6c0,.65,0,1.08.77,1.08a1.4,1.4,0,0,0,.42,0v1.48a8.58,8.58,0,0,1-1.24.09c-2.08,0-2.35-1.38-2.35-1.91v-5.3h-1Z"/><path class="cls-1" d="M95.08,35.46c0,1,0,2.56,1.09,2.56.85,0,1-.82,1-1.53h2.44a3.09,3.09,0,0,1-.92,2.23,3.6,3.6,0,0,1-2.54.83c-3.1,0-3.51-1.89-3.51-4.58,0-2.35.34-4.36,3.51-4.36s3.59,2.09,3.51,4.85Zm2.2-1.34c0-.84,0-2-1.11-2s-1.09,1.3-1.09,2Z"/><path class="cls-1" d="M29,12.35l2.22-.47a12.52,12.52,0,0,0,1.7-.45l.51-.17a10.81,10.81,0,0,0,1.19-.46l2-.88.89-.39c.38-.17.76-.36,1.12-.56l.92-.51,1.37-.75c.28-.15.55-.31.82-.48l1.39-.89,1.37-.91a13.26,13.26,0,0,0,1.11-.82l1.26-1,1.39-1.07A13,13,0,0,0,49.61,1.3L50.91,0h0l-.16.49-.43,1c-.15.33-.3.65-.47,1L49,4.07l-.65,1.14L47.82,6c-.22.34-.44.67-.68,1l-.3.39a10.57,10.57,0,0,1-.67.83l-.79.9-1.14,1.3-.2.23a14.11,14.11,0,0,1-2.45,2.18l-.27.19-.57.44a14.15,14.15,0,0,1-1.9,1.25l-.79.43-2,1h0l.16.65.34,1.35c.1.4.18.81.25,1.22l.39,2.48.2,1.07q.12.72.18,1.44l.11,1.39.13,2c0,.31,0,.63,0,.94v3.7a14.52,14.52,0,0,1-.11,1.74l-.21,1.74L37.33,38c0,.46-.13.91-.22,1.35l-.42,2q-.09.43-.21.87l-.69,2.49-1,3.09h0V39l-.14-3-.06-.81-.29-2.69L34,29.77l-.17-1-.32-.65h0v.69A14.06,14.06,0,0,1,33.34,31c-.05.35-.11.74-.16,1.07A70.4,70.4,0,0,1,28.3,47.66l-.92,2.12c-.14.32-.3.64-.46.95L25.7,53h0l.09-.6c.05-.36.11-.72.19-1.07l.42-1.9c.08-.33.14-.66.19-1l.58-3.89L28,39,28.3,36l.15-2.72c0-.25,0-.5,0-.74V24.16a14.48,14.48,0,0,0-.08-1.47l-.25-2.36-.22-2a14.94,14.94,0,0,0-.33-1.87l-.1-.38-.32-1.3h.16l.49-.49.18-.13A3.8,3.8,0,0,0,29,12.35Z"/><path class="cls-1" d="M33.35,16.43h0l.32-.16L34,16.1l.48-.81.33-.81.3-.6a5.37,5.37,0,0,0,.33-.78L36,11.71l.32-.81.33-.49h0l-1.2.4-.54.16-1.68.42L31.05,12a6.19,6.19,0,0,1-.62.13L28,12.53l-3,.6-.45.08-2.86.39a8.22,8.22,0,0,1-1,.06h-1l-.61,0-1.64.14H15.62l-.66,0-1.13-.11-.65-.08-1.47-.27-1.29-.26a5.48,5.48,0,0,1-.67-.17l-.68-.2a7.08,7.08,0,0,1-1.18-.47L7.34,12,7,11.77l-.64-.36c-.21-.12-.42-.26-.62-.4l-.84-.6-.71-.47c-.18-.12-.35-.25-.51-.38l-.57-.45L2,8.14a7.82,7.82,0,0,1-.7-.71L.65,6.67,0,5.86H0v.48l.4.6a7.75,7.75,0,0,1,.46.79l.4.81a9,9,0,0,0,.46.79l.22.33c.12.17.24.35.37.51l.2.25a7.7,7.7,0,0,0,.54.6l.69.69.78.78.41.38.68.58a5,5,0,0,0,.51.4l.54.39c.22.16.46.3.7.44l.81.45a6.45,6.45,0,0,0,.59.29l.65.29a6.59,6.59,0,0,0,1.05.38l1.25.34,1.79.49h0L13,18.38l-.34,1.15a7.41,7.41,0,0,1-.35.93l-.61,1.34L11,23.52l-.21.46L9.92,25.7l-.49.81-.65.82-.48.49-.65.65h0l1.84.28.54.1,1.84.43h0L12,32.86v2.72c0,.25,0,.49,0,.73l.09.91c0,.24.06.47.11.71l.21,1c0,.17.07.33.11.5L13,41l.49,1.95h0V41.77a7.07,7.07,0,0,1,.06-.91L14,37.41l.32-2.11.28-1.78c0-.22.08-.45.13-.67l.41-1.62.16-.81.33-.49h0l.12,1.26A42.3,42.3,0,0,0,17,39.13l.35,1.17c0,.14.09.27.14.4l.58,1.59.65,1.79.66,1.6a7.32,7.32,0,0,0,.33.69l.8,1.45,1.13,2h0l-.48-2.28-.49-2.44A66.42,66.42,0,0,1,19,32.42a3.64,3.64,0,0,1,.28-2l.05-.15h0l1.65.27.6.08,1.65.13h0l-1.14-3.09-.57-1.42-.15-.41L21,24.56l-.28-.95a6.48,6.48,0,0,1-.27-1.38l-.05-.49a8.55,8.55,0,0,0-.14-.86l-.06-.25A7.74,7.74,0,0,1,20,19v-.66h0l1.06.12a7.32,7.32,0,0,0,.81,0h2.56a5.43,5.43,0,0,0,.57,0l1.34-.1a7.81,7.81,0,0,0,1-.14L28.87,18a4,4,0,0,1,.5-.09l.39-.06a8.13,8.13,0,0,0,1-.21h0A7.15,7.15,0,0,0,32,17.1l.37-.18,1-.49Z"/><polygon class="cls-2" points="17.24 23.1 17.41 23.26 17.41 23.26 17.41 23.1 17.24 23.1 17.24 23.1 17.24 23.1 17.24 23.1"/><polygon class="cls-2" points="15.62 19.84 15.62 19.84 15.78 20.33 15.62 19.84 15.62 19.84 15.62 19.84"/><polygon class="cls-2" points="18.38 25.05 18.38 25.05 18.22 24.89 18.22 24.73 18.22 24.73 18.22 24.73 18.22 25.05 18.38 25.05 18.38 25.05 18.38 25.05 18.38 25.05"/><polygon class="cls-2" points="21.8 30.58 21.63 30.42 21.63 30.42 21.63 30.42 21.63 30.42 21.8 30.58 21.8 30.58 21.8 30.58 21.8 30.58"/><polygon class="cls-2" points="21.15 26.84 21.15 26.84 21.15 26.84 21.15 26.84 21.15 27.33 21.15 27.33 21.31 28.3 21.15 26.84 21.15 26.84 21.15 26.84"/><polygon class="cls-2" points="20.61 22.49 20.44 22.65 20.61 22.65 20.61 22.65 20.61 22.65 20.61 22.49 20.61 22.49 20.61 22.49 20.61 22.49"/><polygon class="cls-2" points="20.66 23.1 20.44 22.98 20.44 22.98 20.66 23.1 20.66 23.1 20.66 23.1 20.66 23.1"/><path class="cls-2" d="M20.66,23.1,20.61,23Z"/><polygon class="cls-3" points="22.12 32.53 22.29 32.61 22.19 32.47 22.12 32.53"/><polygon class="cls-3" points="22.29 33.67 22.29 33.67 22.29 33.67 22.29 33.67"/><polygon class="cls-3" points="22.45 33.83 22.29 33.67 22.45 34 22.45 33.83"/><path class="cls-3" d="M22.29,29.44h0L22,28.14l-.16-1.3-.06-.29-.27-.85v-.65l0-.44-.09-.54-.16-.65L21,22.67l-.19-.51h-.16l-.17.17V23l.06.77v.32l-.17.49-.16.17-.32.32-.17.16h-.81l-.33-.16-.81-1.36v-.1l-.16-.17-.16-.32-.33-.49L16.1,21l-.32-.65-.33-.48-.65-1.14-.16-.65-.49-1.31L14,15.94V14.31l.16-.16L14,13.83l-.16-.33-.17-.32L13.34,13h-.65l-.33.17-.16.16L12,13.5l-.17.49-.16.81v1.14l.33,1.3.32,1.14L13,20.33l.49.82.65,1.3.65,1.14,1.63,1.95.49.49.49.16.48.32.33.17H19l.49-.17.33-.16L20,26v1.62l.16,1,.16.81.17.82v1.95L20.66,34v.65l.32.49-.3-3.56.14.14v.49l.16.32v.65l.17-.16v-.49L21,32.37h.17L21,32.21h.17v.32l.16.49.16.81.16.65v-.32l-.16-1.3V32.7l.16.81.11.43-.11-.11V34l.17.16V34l-.33-2.77.16.16v.66l.33.48.16.82.17.32L22,32.13l.08.24.07.1.1-.1-.17-.16v-.33H22L22,31.56h0v0h.16l.08.24.09.08v.17l.12.63-.12-.07.16.25.16.65v-.33l-.32-2,.16.23v-.48l.1.58-.1-.1.12.25,0,.24.33.49v-.32ZM21,32.05v-.17l.09.17Zm1.31-1.14-.05,0,0-.14.12.18Z"/><polygon class="cls-3" points="22.2 31.8 22.12 31.72 22.12 31.88 22.29 32.05 22.2 31.8"/><polygon class="cls-3" points="21.15 33.18 20.98 33.18 21.15 33.35 21.15 33.18"/><polygon class="cls-2" points="30.58 25.54 30.58 25.54 29.77 25.05 29.77 25.05 30.09 25.21 30.58 25.54 30.58 25.54 30.58 25.54 30.58 25.54"/><polygon class="cls-2" points="38.71 31.56 38.71 31.56 38.71 31.39 38.71 31.39 38.55 30.42 38.55 30.42 38.71 31.56 38.71 31.56 38.71 31.56 38.71 31.56"/><polygon class="cls-2" points="38.71 30.42 38.71 30.42 38.71 30.09 38.71 30.09 38.39 29.12 38.39 29.12 38.71 30.42 38.71 30.42 38.71 30.42 38.71 30.42"/><polygon class="cls-2" points="37.74 22.94 37.74 22.94 37.58 22.77 37.74 22.94 37.74 22.94 37.74 22.94 37.74 22.94"/><path class="cls-2" d="M37.9,23.42l-.16-.16Z"/><polygon class="cls-2" points="28.79 23.91 28.79 23.91 28.63 23.91 28.63 23.91 28.79 24.07 28.79 24.07 28.79 24.07 28.79 24.07 28.79 23.91 28.79 23.91 28.79 23.91 28.79 23.91"/><polygon class="cls-2" points="30.74 25.21 30.74 25.21 29.93 24.73 29.93 24.73 30.26 25.05 30.74 25.21 30.74 25.21 30.74 25.21 30.74 25.21"/><polygon class="cls-2" points="37.9 22.94 37.74 22.77 37.9 22.94 37.9 22.94 37.9 22.94 37.9 22.94"/><polygon class="cls-3" points="39.04 39.2 38.88 39.04 39.04 39.53 39.2 39.85 39.2 39.69 39.04 39.37 39.04 39.2"/><polygon class="cls-3" points="39.53 38.55 39.49 38.51 39.53 38.71 39.53 38.55"/><polygon class="cls-3" points="38.71 40.99 38.88 41.15 38.71 40.5 38.71 40.83 38.71 40.99"/><polygon class="cls-3" points="38.39 40.34 38.55 40.5 38.55 40.34 38.39 40.18 38.39 40.34"/><polygon class="cls-3" points="38.23 41.32 38.23 41.15 38.23 40.99 38.06 40.83 38.23 41.32"/><polygon class="cls-3" points="40.02 38.88 40.1 38.88 40.02 38.71 40.02 38.88"/><polygon class="cls-3" points="40.18 39.04 40.18 38.88 40.1 38.88 40.18 39.04"/><polygon class="cls-3" points="39.69 37.41 39.65 37.41 39.69 37.58 39.69 37.41"/><polygon class="cls-3" points="39.2 38.71 39.2 38.55 39.12 38.47 39.2 38.71"/><polygon class="cls-3" points="40.02 37.74 40.18 37.9 40.18 37.74 40.02 37.74"/><polygon class="cls-3" points="38.39 41.15 38.55 41.15 38.55 40.99 38.47 40.99 38.39 40.83 38.39 40.5 38.34 40.23 38.39 40.99 38.39 41.15"/><path class="cls-3" d="M39.36,34.65V34l-.65-3.91-.32-1-.33-2.93-.13-.55.3-.1.32-.16.16-.17h.17l.49-.17.15-.79-.16-.18h.17v-.16l-.17-.16-.16-.16.16-.33-.16-.16v-.16l-.49-.33-.12.12-.12,0-.08-.08v-.16l-.16-.16v.16l-.17-.16-.16-.17.16.33.17.16.14.05.18.28.09.26-.16-.12-.09-.14-.16-.17-.33-.16h-.16l-.16.16-.17.17v.16H36.6l-1.46.16-2.77.16h-1l-1.3-.32-1.62-.33-.33-.16-.32-.16-.33.16-.16.16-.16.17v.81l.32.32.49.49,1,.49.49.16.65.33,1,.16,1.3.16.81.17,1.31.16h1.3l.81-.14v.46l.16.49v2.44l.17.65v.49l.16.81v.66l.16.48V35.3l.16.49v1.3l.33.65v.49l.16.65V40h.16v.48l.17.49v-1.3l.1.54,0-.57.1.19v-.16l-.1-.1-.06-.88.16.49v-.49l-.16-.16.16-.16-.16-.16V37.9l.16.49.1.51,0,.09-.07-.11,0,.16,0,.16v.49h.16l0,.16h0l0,0,.12.61V39l.17.65v-.33l-.07-1,.07.07v.32l.32.49L39,38.39l.08.08L39,38.23v-.49h.12v0L39,37.9l.16.16v.17l.11.32H39.2l.16.49v-.33l.11.44L39.36,39v.16l.17.16V39.2l-.09-.41.09.09v-.17h-.11l-.06-.28v0l.13.12-.13-.61.09.08-.09-.24v-.16l.06.1.07.34,0,0,.08.25.32.65v-.17l-.08-.41.08.09-.1-.15-.12-.6.06.1-.07-.15,0-.18h.07l-.12-.49V36.6l.16-.16h-.16v-.17l.16.17.12.61-.28-.29.16.33h.13l0,.16.17.49v-.16ZM37.2,31l0,.05h0Zm0,.19,0,0v.11Zm.83,7.67M38.88,36l.16.16.16.33H39l.16.16-.12.48-.2-1Zm-.33,1.95h.16v.33Zm.33-.49-.11.31,0-.61.14.14v.16Zm.43-1.3-.11-.49h.16v.49Z"/><polygon class="cls-3" points="39.37 24.73 39.2 25.05 39.37 25.05 39.37 24.73"/><polygon class="cls-3" points="39.38 24.07 39.37 24.73 39.53 24.56 39.38 24.07"/><polygon class="cls-3" points="38.23 22.12 38.23 22.29 38.39 22.29 38.23 22.12"/><polygon class="cls-3" points="38.55 22.61 38.71 22.61 38.39 22.29 38.39 22.45 38.55 22.61"/><path class="cls-1" d="M30.75,3.39a5,5,0,0,0-4.4-.47,4.18,4.18,0,0,0-2,1.53c-.35.47-.83,1.18-1.45,2.2-2.48,3.76-3.5,3.71-3.59,3.77-1.48.4-3.17-.71-2.28-2.9,1.34-2.31,5-1,5-1-2.62-3.07-6-1.89-6.67-1.14a4.31,4.31,0,0,0,.64,6.53,5,5,0,0,0,4.41.47,4.23,4.23,0,0,0,2-1.53c.44-.6,2.15-2.9,3.42-4.81h0a2.86,2.86,0,0,1,1.61-1.15c1.45-.43,3.18.71,2.29,2.9-1.34,2.31-5,1-5,1,2.61,3.07,6,1.89,6.66,1.14A4.3,4.3,0,0,0,30.75,3.39Z"/><path class="cls-1" d="M47.31,47.7h-.69l1.24-5.79h1.19l.43,4.86h0L52,41.91h1.22L52,47.7h-.74l1.1-5.15h0L49.62,47.7h-.7l-.49-5.15h0Z"/><path class="cls-1" d="M53.81,45.89c-.24,1.13,0,1.36.53,1.36a.94.94,0,0,0,.87-.77h.72a1.58,1.58,0,0,1-1.69,1.3c-.86,0-1.48-.25-1.1-2,.25-1.19.6-2.17,2-2.17,1.16,0,1.31.63,1,2l-.07.35Zm1.69-.5c.25-1.18,0-1.32-.53-1.32s-.81.2-1,1.32Zm.9-3.48L55.11,43h-.54l1-1.13Z"/><path class="cls-1" d="M57.49,43.65l.16-.78.73-.3-.23,1.08H59l-.11.5H58l-.53,2.48c0,.26-.12.58.48.58l.3,0-.1.51c-.22,0-.45.06-.67.06-.62,0-.85-.26-.75-.72l.61-2.88h-.66l.1-.5Z"/><path class="cls-1" d="M59.38,47.7h-.66l.86-4.05h.66Zm.53-5.79h.74l-.15.7h-.74Z"/><path class="cls-1" d="M61.37,47.78c-.88,0-1.34-.38-1.12-1.31H61c0,.23-.16.78.5.78a.78.78,0,0,0,.83-.62c.16-.72-1.86-.74-1.6-2a1.49,1.49,0,0,1,1.63-1.11c.72,0,1.27.35,1,1.15h-.73c.1-.43-.08-.65-.5-.65a.72.72,0,0,0-.74.54c-.15.72,1.87.7,1.61,1.94A1.53,1.53,0,0,1,61.37,47.78Z"/><path class="cls-1" d="M68.73,43.51a1.36,1.36,0,0,0,0-.85.82.82,0,0,0-.6-.25,1.15,1.15,0,0,0-1,.45,2.61,2.61,0,0,0-.43,1.21l-.33,1.55c-.3,1.42.13,1.59.7,1.59.22,0,.92-.08,1.17-1.22h.77c-.36,1.83-1.65,1.83-2,1.83-.72,0-1.82,0-1.34-2.29L66,43.89c.34-1.64,1.17-2.1,2.31-2.1s1.46.59,1.15,1.72Z"/><path class="cls-1" d="M70.45,45.89c-.24,1.13,0,1.36.53,1.36a1,1,0,0,0,.88-.77h.72a1.58,1.58,0,0,1-1.69,1.3c-.86,0-1.49-.25-1.11-2,.25-1.19.6-2.17,2-2.17,1.16,0,1.31.63,1,2l-.08.35Zm1.69-.5c.25-1.18,0-1.32-.53-1.32s-.8.2-1,1.32Z"/><path class="cls-1" d="M75.29,47.7l.6-2.81c.09-.43,0-.78-.55-.78-.72,0-1,.64-1.08,1.19l-.51,2.4h-.66l.69-3.21c0-.28.1-.56.13-.84h.7l-.11.52h0a1.35,1.35,0,0,1,1.22-.6c.86,0,1,.52.8,1.32L76,47.7Z"/><path class="cls-1" d="M77.8,43.65l.16-.78.72-.3-.23,1.08h.89l-.11.5h-.88l-.53,2.48c0,.26-.12.58.48.58l.3,0-.11.51c-.22,0-.44.06-.66.06-.63,0-.85-.26-.75-.72l.61-2.88H77l.11-.5Z"/><path class="cls-1" d="M80.39,44.26h0a1.36,1.36,0,0,1,1.4-.69l-.14.68-.18,0-.17,0c-.73,0-1,.56-1.15,1.1l-.51,2.39H79l.87-4.05h.66Z"/><path class="cls-1" d="M82.42,45.89c-.24,1.13,0,1.36.53,1.36a.94.94,0,0,0,.87-.77h.72a1.58,1.58,0,0,1-1.69,1.3c-.86,0-1.48-.25-1.1-2,.25-1.19.6-2.17,2-2.17,1.16,0,1.31.63,1,2l-.07.35Zm1.69-.5c.25-1.18,0-1.32-.53-1.32s-.81.2-1,1.32Z"/><path class="cls-1" d="M87,45.74c.25-1.19.6-2.17,2-2.17s1.33,1,1.08,2.17c-.38,1.79-1.12,2-2,2S86.63,47.53,87,45.74Zm2.45-.28c.24-1.11-.06-1.35-.56-1.35s-.9.24-1.14,1.35c-.28,1.31-.21,1.79.47,1.79S89.18,46.77,89.46,45.46Z"/><path class="cls-1" d="M91.46,43.65l.16-.79a1.23,1.23,0,0,1,1.38-1,1.26,1.26,0,0,1,.3,0l-.1.47c-.69-.05-.87.25-.94.58l-.15.69h.82l-.1.5H92l-.76,3.55h-.66l.76-3.55h-.63l.11-.5Z"/><path class="cls-1" d="M94.07,47.7l1.24-5.79h3l-.13.64H95.91l-.4,1.86H97.6l-.14.65H95.38l-.43,2h2.29l-.13.64Z"/><path class="cls-1" d="M101,47.7h-.86L99.53,46,98.3,47.7h-.78l1.71-2.12-.74-1.93h.84l.46,1.45,1.13-1.45h.8l-1.63,1.93Z"/><path class="cls-1" d="M104,45c.16-.67-.13-.84-.38-.84-.51,0-.9.24-1.14,1.35-.28,1.31-.21,1.79.47,1.79.16,0,.65-.16.78-.89h.69a1.65,1.65,0,0,1-1.58,1.42c-.86,0-1.49-.25-1.11-2,.26-1.19.6-2.17,2-2.17.82,0,1.19.47,1,1.38Z"/><path class="cls-1" d="M105.69,45.89c-.24,1.13,0,1.36.53,1.36a.94.94,0,0,0,.87-.77h.72a1.58,1.58,0,0,1-1.69,1.3c-.86,0-1.49-.25-1.1-2,.25-1.19.59-2.17,2-2.17,1.15,0,1.31.63,1,2l-.07.35Zm1.69-.5c.25-1.18,0-1.32-.53-1.32s-.81.2-1.06,1.32Z"/><path class="cls-1" d="M108.94,47.7h-.65l1.23-5.79h.66Z"/><path class="cls-1" d="M110.48,47.7h-.65l1.23-5.79h.66Z"/><path class="cls-1" d="M112.23,45.89c-.24,1.13,0,1.36.53,1.36a.94.94,0,0,0,.87-.77h.72a1.58,1.58,0,0,1-1.69,1.3c-.86,0-1.49-.25-1.11-2,.26-1.19.6-2.17,2-2.17,1.16,0,1.31.63,1,2l-.07.35Zm1.68-.5c.25-1.18,0-1.32-.53-1.32s-.8.2-1,1.32Z"/><path class="cls-1" d="M117,47.7l.6-2.81c.09-.43,0-.78-.54-.78-.73,0-1,.64-1.09,1.19l-.51,2.4h-.65l.68-3.21c.06-.28.1-.56.14-.84h.7l-.11.52h0a1.34,1.34,0,0,1,1.21-.6c.87,0,1,.52.8,1.32l-.6,2.81Z"/><path class="cls-1" d="M121,45c.16-.67-.13-.84-.38-.84-.51,0-.9.24-1.14,1.35-.28,1.31-.21,1.79.47,1.79.15,0,.65-.16.78-.89h.69a1.65,1.65,0,0,1-1.58,1.42c-.86,0-1.49-.25-1.11-2,.26-1.19.6-2.17,2-2.17.82,0,1.19.47.95,1.38Z"/><path class="cls-1" d="M122.89,45.89c-.25,1.13,0,1.36.52,1.36a1,1,0,0,0,.88-.77H125a1.58,1.58,0,0,1-1.69,1.3c-.86,0-1.49-.25-1.11-2,.25-1.19.6-2.17,2-2.17,1.16,0,1.31.63,1,2l-.08.35Zm1.68-.5c.25-1.18,0-1.32-.53-1.32s-.8.2-1.05,1.32Z"/></svg>